<svg xmlns="http://www.w3.org/2000/svg" viewBox="0 0 512 512" style="height: 512px; width: 512px;"><defs><clipPath id="icon-bg"><circle cx="256" cy="256" r="256" fill="#ffffff" fill-opacity="1" transform="translate(-102.4, 614.4) scale(1.4, -1.4) rotate(-360, 256, 256) skewX(0) skewY(0)"></circle></clipPath></defs><circle cx="256" cy="256" r="256" fill="#ffffff" fill-opacity="1"></circle><g class="" transform="translate(25,-2)" style=""><path d="M106.854 106.002a26.003 26.003 0 0 0-25.64 29.326c16 124 16 117.344 0 241.344a26.003 26.003 0 0 0 35.776 27.332l298-124a26.003 26.003 0 0 0 0-48.008l-298-124a26.003 26.003 0 0 0-10.136-1.994z" fill="#121212" fill-opacity="1" transform="translate(102.4, 409.6) scale(0.6, -0.6) rotate(-360, 256, 256) skewX(0) skewY(0)" clip-path="url(#icon-bg)"></path></g></svg>